<mxfile host="65bd71144e">
    <diagram id="j99C_CYVb3kKsg557WW-" name="PÃ¡gina-1">
        <mxGraphModel dx="624" dy="1135" grid="1" gridSize="10" guides="1" tooltips="1" connect="1" arrows="1" fold="1" page="1" pageScale="1" pageWidth="827" pageHeight="1169" math="0" shadow="0">
            <root>
                <mxCell id="0"/>
                <mxCell id="1" parent="0"/>
                <mxCell id="2" value="medidasCautelares" style="swimlane;startSize=20;horizontal=1;childLayout=treeLayout;horizontalTree=0;resizable=0;containerType=tree;fontSize=12;gradientColor=none;rounded=1;" parent="1" vertex="1">
                    <mxGeometry width="2240" height="372" as="geometry"/>
                </mxCell>
                <mxCell id="3" value="medidaCautelar" style="whiteSpace=wrap;html=1;rounded=1;" parent="2" vertex="1">
                    <mxGeometry x="1210" y="40" width="100" height="40" as="geometry"/>
                </mxCell>
                <mxCell id="4" value="inmueble" style="whiteSpace=wrap;html=1;rounded=1;" parent="2" vertex="1">
                    <mxGeometry x="300" y="130" width="100" height="40" as="geometry"/>
                </mxCell>
                <mxCell id="5" value="" style="edgeStyle=elbowEdgeStyle;elbow=vertical;html=1;rounded=1;curved=0;sourcePerimeterSpacing=0;targetPerimeterSpacing=0;startSize=6;endSize=6;" parent="2" source="3" target="4" edge="1">
                    <mxGeometry relative="1" as="geometry"/>
                </mxCell>
                <mxCell id="10" value="" style="edgeStyle=elbowEdgeStyle;elbow=vertical;html=1;rounded=1;curved=0;sourcePerimeterSpacing=0;targetPerimeterSpacing=0;startSize=6;endSize=6;" parent="2" source="4" target="11" edge="1">
                    <mxGeometry relative="1" as="geometry">
                        <mxPoint x="-11155.95" y="90" as="sourcePoint"/>
                    </mxGeometry>
                </mxCell>
                <mxCell id="11" value="embargo" style="whiteSpace=wrap;html=1;rounded=1;" parent="2" vertex="1">
                    <mxGeometry x="20" y="220" width="100" height="40" as="geometry"/>
                </mxCell>
                <mxCell id="12" value="" style="edgeStyle=elbowEdgeStyle;elbow=vertical;html=1;rounded=1;curved=0;sourcePerimeterSpacing=0;targetPerimeterSpacing=0;startSize=6;endSize=6;" parent="2" source="3" target="13" edge="1">
                    <mxGeometry relative="1" as="geometry">
                        <mxPoint x="-11155.95" y="90" as="sourcePoint"/>
                    </mxGeometry>
                </mxCell>
                <mxCell id="13" value="cuentaBancaria" style="whiteSpace=wrap;html=1;rounded=1;" parent="2" vertex="1">
                    <mxGeometry x="790" y="130" width="100" height="40" as="geometry"/>
                </mxCell>
                <mxCell id="14" value="" style="edgeStyle=elbowEdgeStyle;elbow=vertical;html=1;rounded=1;curved=0;sourcePerimeterSpacing=0;targetPerimeterSpacing=0;startSize=6;endSize=6;" parent="2" source="4" target="15" edge="1">
                    <mxGeometry relative="1" as="geometry">
                        <mxPoint x="-11155.95" y="180" as="sourcePoint"/>
                    </mxGeometry>
                </mxCell>
                <mxCell id="15" value="oficio&lt;br&gt;instrumentos&lt;br&gt;publicos" style="whiteSpace=wrap;html=1;rounded=1;" parent="2" vertex="1">
                    <mxGeometry x="160" y="221.5" width="100" height="40" as="geometry"/>
                </mxCell>
                <mxCell id="16" value="" style="edgeStyle=elbowEdgeStyle;elbow=vertical;html=1;rounded=1;curved=0;sourcePerimeterSpacing=0;targetPerimeterSpacing=0;startSize=6;endSize=6;" parent="2" source="4" target="17" edge="1">
                    <mxGeometry relative="1" as="geometry">
                        <mxPoint x="-10875.95" y="180" as="sourcePoint"/>
                    </mxGeometry>
                </mxCell>
                <mxCell id="17" value="secuestro" style="whiteSpace=wrap;html=1;rounded=1;" parent="2" vertex="1">
                    <mxGeometry x="300" y="220" width="100" height="40" as="geometry"/>
                </mxCell>
                <mxCell id="18" value="" style="edgeStyle=elbowEdgeStyle;elbow=vertical;html=1;rounded=1;curved=0;sourcePerimeterSpacing=0;targetPerimeterSpacing=0;startSize=6;endSize=6;" parent="2" source="4" target="19" edge="1">
                    <mxGeometry relative="1" as="geometry">
                        <mxPoint x="-10061.85" y="180" as="sourcePoint"/>
                    </mxGeometry>
                </mxCell>
                <mxCell id="19" value="avaluo" style="whiteSpace=wrap;html=1;rounded=1;" parent="2" vertex="1">
                    <mxGeometry x="440" y="220" width="100" height="40" as="geometry"/>
                </mxCell>
                <mxCell id="20" value="" style="edgeStyle=elbowEdgeStyle;elbow=vertical;html=1;rounded=1;curved=0;sourcePerimeterSpacing=0;targetPerimeterSpacing=0;startSize=6;endSize=6;" parent="2" source="4" target="21" edge="1">
                    <mxGeometry relative="1" as="geometry">
                        <mxPoint x="-9585.85" y="180" as="sourcePoint"/>
                    </mxGeometry>
                </mxCell>
                <mxCell id="21" value="remate" style="whiteSpace=wrap;html=1;rounded=1;" parent="2" vertex="1">
                    <mxGeometry x="580" y="220" width="100" height="40" as="geometry"/>
                </mxCell>
                <mxCell id="22" value="" style="edgeStyle=elbowEdgeStyle;elbow=vertical;html=1;rounded=1;curved=0;sourcePerimeterSpacing=0;targetPerimeterSpacing=0;startSize=6;endSize=6;" parent="2" source="13" target="23" edge="1">
                    <mxGeometry relative="1" as="geometry">
                        <mxPoint x="-8689.85" y="90" as="sourcePoint"/>
                    </mxGeometry>
                </mxCell>
                <mxCell id="23" value="oficio" style="whiteSpace=wrap;html=1;rounded=1;" parent="2" vertex="1">
                    <mxGeometry x="720" y="220" width="100" height="40" as="geometry"/>
                </mxCell>
                <mxCell id="26" value="" style="edgeStyle=elbowEdgeStyle;elbow=vertical;html=1;rounded=1;curved=0;sourcePerimeterSpacing=0;targetPerimeterSpacing=0;startSize=6;endSize=6;" parent="2" source="13" target="27" edge="1">
                    <mxGeometry relative="1" as="geometry">
                        <mxPoint x="-7429.85" y="180" as="sourcePoint"/>
                    </mxGeometry>
                </mxCell>
                <mxCell id="27" value="respuestaBanco" style="whiteSpace=wrap;html=1;rounded=1;" parent="2" vertex="1">
                    <mxGeometry x="860" y="220" width="100" height="40" as="geometry"/>
                </mxCell>
                <mxCell id="28" value="" style="edgeStyle=elbowEdgeStyle;elbow=vertical;html=1;rounded=1;curved=0;sourcePerimeterSpacing=0;targetPerimeterSpacing=0;startSize=6;endSize=6;" parent="2" source="3" target="29" edge="1">
                    <mxGeometry relative="1" as="geometry">
                        <mxPoint x="-7114.85" y="90" as="sourcePoint"/>
                    </mxGeometry>
                </mxCell>
                <mxCell id="29" value="vehiculo" style="whiteSpace=wrap;html=1;rounded=1;" parent="2" vertex="1">
                    <mxGeometry x="1350" y="130" width="100" height="40" as="geometry"/>
                </mxCell>
                <mxCell id="30" value="" style="edgeStyle=elbowEdgeStyle;elbow=vertical;html=1;rounded=1;curved=0;sourcePerimeterSpacing=0;targetPerimeterSpacing=0;startSize=6;endSize=6;" parent="2" source="29" target="31" edge="1">
                    <mxGeometry relative="1" as="geometry">
                        <mxPoint x="-6491.85" y="90" as="sourcePoint"/>
                    </mxGeometry>
                </mxCell>
                <mxCell id="31" value="embargo" style="whiteSpace=wrap;html=1;rounded=1;" parent="2" vertex="1">
                    <mxGeometry x="1000" y="220" width="100" height="40" as="geometry"/>
                </mxCell>
                <mxCell id="32" value="" style="edgeStyle=elbowEdgeStyle;elbow=vertical;html=1;rounded=1;curved=0;sourcePerimeterSpacing=0;targetPerimeterSpacing=0;startSize=6;endSize=6;" parent="2" source="29" target="33" edge="1">
                    <mxGeometry relative="1" as="geometry">
                        <mxPoint x="-6141.85" y="180" as="sourcePoint"/>
                    </mxGeometry>
                </mxCell>
                <mxCell id="33" value="oficio&lt;br&gt;SIm Runt" style="whiteSpace=wrap;html=1;rounded=1;" parent="2" vertex="1">
                    <mxGeometry x="1140" y="220" width="100" height="40" as="geometry"/>
                </mxCell>
                <mxCell id="34" value="" style="edgeStyle=elbowEdgeStyle;elbow=vertical;html=1;rounded=1;curved=0;sourcePerimeterSpacing=0;targetPerimeterSpacing=0;startSize=6;endSize=6;" parent="2" source="29" target="35" edge="1">
                    <mxGeometry relative="1" as="geometry">
                        <mxPoint x="-5441.85" y="180" as="sourcePoint"/>
                    </mxGeometry>
                </mxCell>
                <mxCell id="35" value="respuesta Embargo Secre trans" style="whiteSpace=wrap;html=1;rounded=1;" parent="2" vertex="1">
                    <mxGeometry x="1280" y="221.5" width="100" height="40" as="geometry"/>
                </mxCell>
                <mxCell id="36" value="" style="edgeStyle=elbowEdgeStyle;elbow=vertical;html=1;rounded=1;curved=0;sourcePerimeterSpacing=0;targetPerimeterSpacing=0;startSize=6;endSize=6;" parent="2" source="29" target="37" edge="1">
                    <mxGeometry relative="1" as="geometry">
                        <mxPoint x="-4706.85" y="180" as="sourcePoint"/>
                    </mxGeometry>
                </mxCell>
                <mxCell id="37" value="secuestro" style="whiteSpace=wrap;html=1;rounded=1;" parent="2" vertex="1">
                    <mxGeometry x="1420" y="220" width="100" height="40" as="geometry"/>
                </mxCell>
                <mxCell id="38" value="" style="edgeStyle=elbowEdgeStyle;elbow=vertical;html=1;rounded=1;curved=0;sourcePerimeterSpacing=0;targetPerimeterSpacing=0;startSize=6;endSize=6;" parent="2" source="29" target="39" edge="1">
                    <mxGeometry relative="1" as="geometry">
                        <mxPoint x="-3936.8500000000004" y="180" as="sourcePoint"/>
                    </mxGeometry>
                </mxCell>
                <mxCell id="39" value="avaluo" style="whiteSpace=wrap;html=1;rounded=1;" parent="2" vertex="1">
                    <mxGeometry x="1560" y="220" width="100" height="40" as="geometry"/>
                </mxCell>
                <mxCell id="40" value="" style="edgeStyle=elbowEdgeStyle;elbow=vertical;html=1;rounded=1;curved=0;sourcePerimeterSpacing=0;targetPerimeterSpacing=0;startSize=6;endSize=6;" parent="2" source="29" target="41" edge="1">
                    <mxGeometry relative="1" as="geometry">
                        <mxPoint x="-3131.8500000000004" y="180" as="sourcePoint"/>
                    </mxGeometry>
                </mxCell>
                <mxCell id="41" value="remate" style="whiteSpace=wrap;html=1;rounded=1;" parent="2" vertex="1">
                    <mxGeometry x="1700" y="220" width="100" height="40" as="geometry"/>
                </mxCell>
                <mxCell id="42" value="" style="edgeStyle=elbowEdgeStyle;elbow=vertical;html=1;rounded=1;curved=0;sourcePerimeterSpacing=0;targetPerimeterSpacing=0;startSize=6;endSize=6;" parent="2" source="3" target="43" edge="1">
                    <mxGeometry relative="1" as="geometry">
                        <mxPoint x="-2816.8500000000004" y="90" as="sourcePoint"/>
                    </mxGeometry>
                </mxCell>
                <mxCell id="43" value="camaraDeComercio" style="whiteSpace=wrap;html=1;rounded=1;" parent="2" vertex="1">
                    <mxGeometry x="1910" y="130" width="100" height="40" as="geometry"/>
                </mxCell>
                <mxCell id="44" value="" style="edgeStyle=elbowEdgeStyle;elbow=vertical;html=1;rounded=1;curved=0;sourcePerimeterSpacing=0;targetPerimeterSpacing=0;startSize=6;endSize=6;" parent="2" source="43" target="45" edge="1">
                    <mxGeometry relative="1" as="geometry">
                        <mxPoint x="-1801.8500000000004" y="90" as="sourcePoint"/>
                    </mxGeometry>
                </mxCell>
                <mxCell id="45" value="oficio" style="whiteSpace=wrap;html=1;rounded=1;" parent="2" vertex="1">
                    <mxGeometry x="1840" y="220" width="100" height="40" as="geometry"/>
                </mxCell>
                <mxCell id="46" value="" style="edgeStyle=elbowEdgeStyle;elbow=vertical;html=1;rounded=1;curved=0;sourcePerimeterSpacing=0;targetPerimeterSpacing=0;startSize=6;endSize=6;" parent="2" source="43" target="47" edge="1">
                    <mxGeometry relative="1" as="geometry">
                        <mxPoint x="19.899999999999636" y="180" as="sourcePoint"/>
                    </mxGeometry>
                </mxCell>
                <mxCell id="47" value="secuestro" style="whiteSpace=wrap;html=1;rounded=1;" parent="2" vertex="1">
                    <mxGeometry x="1980" y="220" width="100" height="40" as="geometry"/>
                </mxCell>
                <mxCell id="48" value="" style="edgeStyle=elbowEdgeStyle;elbow=vertical;html=1;rounded=1;curved=0;sourcePerimeterSpacing=0;targetPerimeterSpacing=0;startSize=6;endSize=6;" parent="2" source="3" target="49" edge="1">
                    <mxGeometry relative="1" as="geometry">
                        <mxPoint x="336.64999999999964" y="90" as="sourcePoint"/>
                    </mxGeometry>
                </mxCell>
                <mxCell id="49" value="salario" style="whiteSpace=wrap;html=1;rounded=1;" parent="2" vertex="1">
                    <mxGeometry x="2120" y="130" width="100" height="40" as="geometry"/>
                </mxCell>
                <mxCell id="50" value="" style="edgeStyle=elbowEdgeStyle;elbow=vertical;html=1;rounded=1;curved=0;sourcePerimeterSpacing=0;targetPerimeterSpacing=0;startSize=6;endSize=6;" parent="2" source="49" target="51" edge="1">
                    <mxGeometry relative="1" as="geometry">
                        <mxPoint x="1520.0000000000002" y="90" as="sourcePoint"/>
                    </mxGeometry>
                </mxCell>
                <mxCell id="51" value="oficio" style="whiteSpace=wrap;html=1;rounded=1;" parent="2" vertex="1">
                    <mxGeometry x="2120" y="220" width="100" height="40" as="geometry"/>
                </mxCell>
                <mxCell id="52" value="" style="edgeStyle=elbowEdgeStyle;elbow=vertical;html=1;rounded=1;curved=0;sourcePerimeterSpacing=0;targetPerimeterSpacing=0;startSize=6;endSize=6;" parent="2" source="51" target="53" edge="1">
                    <mxGeometry relative="1" as="geometry">
                        <mxPoint x="2430" y="180" as="sourcePoint"/>
                    </mxGeometry>
                </mxCell>
                <mxCell id="53" value="empleador deposita en banco juzgado" style="whiteSpace=wrap;html=1;rounded=1;" parent="2" vertex="1">
                    <mxGeometry x="2120" y="311.5" width="100" height="40" as="geometry"/>
                </mxCell>
            </root>
        </mxGraphModel>
    </diagram>
</mxfile>